<?xml version="1.0" encoding="utf-8"?>
<!-- Generator: Adobe Illustrator 24.0.2, SVG Export Plug-In . SVG Version: 6.00 Build 0)  -->
<svg version="1.1" id="Layer_1" xmlns="http://www.w3.org/2000/svg" xmlns:xlink="http://www.w3.org/1999/xlink" x="0px" y="0px"
	 viewBox="0 0 1440 1024" style="enable-background:new 0 0 1440 1024;" xml:space="preserve">
<style type="text/css">
	.st0{fill:#FFFFFF;stroke:#000000;stroke-miterlimit:10;}
	.st1{fill:#ADABC0;stroke:#363679;stroke-width:6;stroke-miterlimit:6.5161;}
	.st2{fill:#ADABC0;stroke:#39397B;stroke-width:6;stroke-miterlimit:6.5161;}
	.st3{fill:#ADABC0;stroke:#363679;stroke-width:6;}
	.st4{fill:#ADABC0;stroke:#353578;stroke-width:6;}
	.st5{fill:#FAB0D2;}
	.st6{fill:#F1F2EC;}
	.st7{fill:#353578;}
	.st8{fill:#3B3B7C;fill-opacity:0.7;}
	.st9{fill:#161633;}
	.st10{fill:#353578;fill-opacity:0.7;}
	.st11{fill:#FFFFFF;stroke:#353578;stroke-width:6;stroke-miterlimit:6.5161;}
	.st12{fill:#FFFFFF;}
	.st13{fill:#6D6D9A;}
	.st14{fill:#A9ECFB;}
	.st15{fill:#FFFFFF;fill-opacity:0;stroke:#353578;stroke-width:6;}
	.st16{fill:#FFFFFF;fill-opacity:0;stroke:#5F4758;}
	.st17{fill:none;stroke:#000000;stroke-miterlimit:10;}
</style>
<polygon class="st0" points="1174.8,331.5 1147.7,133.3 1237.4,129.9 1276.4,275.6 "/>
<polygon class="st0" points="1169.1,880.4 1149.3,880.4 1144.3,754.4 1169.1,754.4 "/>
<desc>Created with Fabric.js 5.3.0</desc>
<g id="OCyfZjlyys23jUq2qEYHR" transform="matrix(1 0 0 1 -242.0142324828 421.457304867)">
	<g vector-effect="non-scaling-stroke">
		<g id="ACFtHZkx6txuyGXNwp0Cr" transform="matrix(1.6290256368 0 0 1.6290256368 80.453117653 53.0430157607)">
			<path vector-effect="non-scaling-stroke" class="st1" d="M1182.7,187.7c0,0,21.2-42.5,46.9-27.8c25.6,14.6,24.9-22,24.9-22
				s11.7,134.7-61.5,112.7C1119.8,228.7,1182.7,187.7,1182.7,187.7z"/>
		</g>
		<g id="wUlRwBaRXMkDUPBAmuHlP" transform="matrix(1.6290256368 0 0 1.6290256368 -35.713048782 87.2676055437)">
			<path vector-effect="non-scaling-stroke" class="st2" d="M1204.9,160.9c-14.5-0.7-29.9-2.2-29.9-2.2l-5.6,30l-13.9,44.9h101.8
				l-17.4-51.7l-2.9-24.4C1237,157.4,1219.3,161.6,1204.9,160.9L1204.9,160.9z"/>
		</g>
		<g id="GF-4Gh_dyuLNGaCGLDDPq" transform="matrix(2.171129431 0 0 1.6290256368 -75.8761195307 168.5838817575)">
			<path vector-effect="non-scaling-stroke" class="st3" d="M896,184.1V201c0,0,0.7,5.1,8.8,5.9c8.1,0.7,8.8-5.9,8.8-5.9l0.7-16.8
				H896z"/>
		</g>
		<g id="nTtAOBL2vxPGzmgSCoe4J" transform="matrix(2.171129431 0 0 1.6290256368 -1.1505904795 170.5633025535)">
			<path vector-effect="non-scaling-stroke" class="st3" d="M896,184.1V201c0,0,0.7,5.1,8.8,5.9c8.1,0.7,8.8-5.9,8.8-5.9l0.7-16.8
				H896z"/>
		</g>
		<g id="V0FypI_8b82fy00I4IfF4" transform="matrix(1.6126447175 0 0 1.6307214333 -39.7240848552 -60.0243419127)">
			<path vector-effect="non-scaling-stroke" class="st4" d="M1222.2,251.1c-37.6,0-78.1-21.2-78.1-21.2l19.8-26.1
				c-8.1-80.5,3.7-62.6,3.7-62.6l27.8,32.2h45.1c0,0,29.6-42.5,35.5-32.2c5.9,10.2-3.2,60-3.2,60l20.4,28.7
				C1293.2,229.9,1259.8,251.1,1222.2,251.1z"/>
		</g>
		<g id="YjUbjSJZH_UF0cvrMM8kl" transform="matrix(1.6290256368 0 0 1.6290256368 -108.0525881458 -96.2684514946)">
			<path vector-effect="non-scaling-stroke" class="st5" d="M1201.1,211.2c0,0-4.8-26.7-1.5-30.7s14.6,14.6,14.6,14.6L1201.1,211.2z
				"/>
		</g>
		<g id="_x31_s64PpO4yGeqwzgKn6fn3" transform="matrix(-1.6290256368 0 0 1.6290256368 30.6345274639 -99.0593092226)">
			<path vector-effect="non-scaling-stroke" class="st5" d="M-1211.6,211.2c0,0-4.8-26.7-1.5-30.7s14.6,14.6,14.6,14.6
				L-1211.6,211.2z"/>
		</g>
		<g id="bH-Gk8JMafQGSFTVl2diy" transform="matrix(1.6290256368 0 0 1.6290256368 -37.9383356501 -25.747643123)">
			<path vector-effect="non-scaling-stroke" class="st6" d="M1209.3,222c-30.7,0.4-64.4-13.9-64.4-13.9l23.4-32.9
				c0,0,4.7-6.4,11-6.2c6.2,0.2,13.9,7,13.9,7l13.9,27.1l11.7-23.4c0,0,6.4-8.4,12.5-8.8c6-0.4,14.7,7.3,14.7,7.3l21.9,28.6
				C1267.8,206.7,1240,221.7,1209.3,222L1209.3,222z"/>
		</g>
		<g id="_x37_xosUB25lsf23F6xshVhn" transform="matrix(0.3584253932 0 0 0.1954086598 -35.5515382766 -19.4798058547)">
			<path vector-effect="non-scaling-stroke" class="st7" d="M5482.8,1593.3c20.2,0,36.6,16.4,36.6,36.6s-16.4,36.6-36.6,36.6
				s-36.6-16.4-36.6-36.6S5462.6,1593.3,5482.8,1593.3z"/>
		</g>
		
			<g id="ajx_A7Tq57E2USsautjWg" transform="matrix(0.4838138973 0.3645799218 -0.5468168543 0.7256504749 -85.310118458 -30.6012110928)">
			<path vector-effect="non-scaling-stroke" class="st8" d="M2907.1-1058.3c20.2,0,36.6,16.4,36.6,36.6s-16.4,36.6-36.6,36.6
				c-20.2,0-36.6-16.4-36.6-36.6C2870.5-1041.9,2886.9-1058.3,2907.1-1058.3z"/>
		</g>
		<g id="OfJcXC0bOJNoNCv741vnx" transform="matrix(0.3420967821 0 0 0.4235530302 -74.3082258297 -39.7506581727)">
			<path vector-effect="non-scaling-stroke" class="st9" d="M5744.5,715.4c20.2,0,36.6,16.4,36.6,36.6s-16.4,36.6-36.6,36.6
				s-36.6-16.4-36.6-36.6S5724.3,715.4,5744.5,715.4z"/>
		</g>
		
			<g id="_x32_OmRbd6WzhGRmAVYRBZw1" transform="matrix(-0.4838138973 0.3645799218 0.5468168543 0.7256504749 14.1394804034 -29.8143599278)">
			<path vector-effect="non-scaling-stroke" class="st10" d="M-2274.3,1545c20.2,0,36.6,16.4,36.6,36.6c0,20.2-16.4,36.6-36.6,36.6
				c-20.2,0-36.6-16.4-36.6-36.6S-2294.5,1545-2274.3,1545z"/>
		</g>
		<g id="FWiyk38fZzBD9w7gYHuDl" transform="matrix(0.3420967821 0 0 0.4235530302 5.1875295629 -40.1563766387)">
			<path vector-effect="non-scaling-stroke" class="st9" d="M5744.5,715.4c20.2,0,36.6,16.4,36.6,36.6s-16.4,36.6-36.6,36.6
				s-36.6-16.4-36.6-36.6S5724.3,715.4,5744.5,715.4z"/>
		</g>
		<g id="i_My8LYtjYC8GFzn_vIwO" transform="matrix(2.0851944326 0 0 0.9610235372 -36.1143300651 130.4648976086)">
			<path vector-effect="non-scaling-stroke" class="st3" d="M942.4,294.8c20.2,0,36.6,16.4,36.6,36.6c0,20.2-16.4,36.6-36.6,36.6
				c-20.2,0-36.6-16.4-36.6-36.6C905.8,311.2,922.2,294.8,942.4,294.8z"/>
		</g>
		<g id="hJ6iCrtnH__lUj1YAAkjL" transform="matrix(1.6290256368 0 0 1.6290256368 -35.25185886 89.6906486364)">
			<path vector-effect="non-scaling-stroke" class="st11" d="M1172.7,159.4l-2,14.4l-14.2,57.8l99.7,1l-19.8-59.6l-2-14.6h-8.5
				l0.5,14.1h-44.5l0.3-12.4L1172.7,159.4z"/>
		</g>
		<g id="_-Vjrd_0wqLLX4LWg71LG" transform="matrix(0.1873150816 0 0 0.1873150816 -71.9859335053 -45.5348242548)">
			<path vector-effect="non-scaling-stroke" class="st12" d="M10491.3,1663.7c20.2,0,36.6,16.4,36.6,36.6
				c0,20.2-16.4,36.6-36.6,36.6s-36.6-16.4-36.6-36.6C10454.7,1680.1,10471.1,1663.7,10491.3,1663.7z"/>
		</g>
		<g id="EyGPyjYRG-bWJx5sDs-rH" transform="matrix(0.1873150816 0 0 0.1873150816 2.9492457875 -43.905798618)">
			<path vector-effect="non-scaling-stroke" class="st12" d="M10491.3,1663.7c20.2,0,36.6,16.4,36.6,36.6
				c0,20.2-16.4,36.6-36.6,36.6s-36.6-16.4-36.6-36.6C10454.7,1680.1,10471.1,1663.7,10491.3,1663.7z"/>
		</g>
		<g id="c2NYYapOswb4EGLY9mGyc" transform="matrix(1.6290256368 0 0 1.6290256368 96.9939752852 64.311814758)">
			<path vector-effect="non-scaling-stroke" class="st13" d="M1215.9,180.7c-13-12.6-31.4-15.5-31.4-15.5l-6.3,8.8
				c0,0,18,2,31.4,15.2c13.4,13.2,19.1,36.5,19.1,36.5l5.9-12C1234.5,213.8,1228.9,193.4,1215.9,180.7L1215.9,180.7z"/>
		</g>
		<g id="BQ7nBquB4IiJVCRurm76q" transform="matrix(1.6290256368 0 0 1.6290256368 113.2880812515 35.3428273819)">
			<path vector-effect="non-scaling-stroke" class="st13" d="M1220,182.9c-13-12.6-28.4-12.5-28.4-12.5l-10.3,5.8
				c0,0,19,2,32.4,15.2c13.4,13.2,13.9,29.2,13.9,29.2l3.7-13.4C1231.3,207.2,1233,195.5,1220,182.9L1220,182.9z"/>
		</g>
		<g id="_x30_pNgCvDKfCLmCeBx5ERaT" transform="matrix(1.6797079595 0 0 1.6797079595 150.2616250227 0.5124624241)">
			<path vector-effect="non-scaling-stroke" class="st13" d="M1169.4,194.1c-2.4-2.4-3.9-3.2-3.9-3.2c3.8-0.4,8.8-10.5,8.8-10.5
				s-0.6,12.9-1,18.4C1172.3,197.7,1171.8,196.5,1169.4,194.1z"/>
		</g>
		
			<g id="_x37_3z10kl5IMt2vzmrCB8Zp" transform="matrix(1.6613532768 0.0289990293 -0.0279187004 1.5994612759 -34.9138469718 -133.8419054839)">
			<path vector-effect="non-scaling-stroke" class="st12" d="M1147.9,189.9c6.2-2,13.2,19.8,13.2,19.8l40.3-1.5l10.2-19.8
				c0,0,21.2-4.4,27.8-24.9c3.1-9.8-16.1-11-16.1-11l-13.8,1.4c0,0-14.1,0.6-16.2-0.7c-8.1-5.1-14.8-9-26.4-7.3
				c-11.5,1.6-13.2,6.6-19.8,13.9c-6.6,7.3-8.2-5.3-13.9,5.1S1141.7,191.9,1147.9,189.9z"/>
		</g>
		
			<g id="ovq7HGaCfzVVRHqJG4A3H" transform="matrix(1.6613532768 0.0289990293 -0.0279187004 1.5994612759 -28.1035429792 -129.3129347777)">
			<path vector-effect="non-scaling-stroke" class="st14" d="M1147.5,180.5c0,0,0.1,0,0.4,0s0.5,0,0.7,0s0.5,0,0.7,0
				c0.2,0,0.5,0,0.7,0s0.4-0.1,0.4-0.4c0-0.2,0.1-0.4,0.4-0.4s0.5,0,0.7,0s0.5,0,0.7,0s0.4-0.1,0.4-0.4c0-0.2,0-0.5,0-0.7
				c0-0.2,0.1-0.4,0.4-0.4s0.4-0.1,0.4-0.4c0-0.2,0.1-0.4,0.4-0.4s0.4-0.1,0.4-0.4c0-0.2,0.1-0.5,0.4-0.7s0.5-0.5,0.7-0.7
				s0.4-0.5,0.4-0.7c0-0.2,0.1-0.5,0.4-0.7c0.2-0.2,0.4-0.5,0.4-0.7s0-0.5,0-0.7c0-0.2,0.1-0.5,0.4-0.7c0.2-0.2,0.4-0.5,0.4-0.7
				s0-0.5,0-0.7c0-0.2,0-0.5,0-0.7c0-0.2,0-0.5,0-0.7c0-0.2,0-0.5,0-0.7c0-0.2,0-0.5,0-0.7c0-0.2,0.1-0.4,0.4-0.4
				c0.2,0,0.4-0.1,0.4-0.4c0-0.2,0-0.5,0-0.7c0-0.2,0-0.5,0-0.7c0-0.2,0-0.5,0-0.7c0-0.2,0-0.2,0,0c0,0.2,0,0.5,0,0.7
				c0,0.2,0.1,0.4,0.4,0.4c0.2,0,0.4,0.1,0.4,0.4c0,0.2,0,0.5,0,0.7c0,0.2,0.1,0.4,0.4,0.4s0.4,0.1,0.4,0.4c0,0.2,0.1,0.4,0.4,0.4
				s0.4,0.1,0.4,0.4c0,0.2,0.1,0.4,0.4,0.4c0.2,0,0.4,0.1,0.4,0.4c0,0.2,0.1,0.4,0.4,0.4s0.4,0.1,0.4,0.4c0,0.2,0.1,0.4,0.4,0.4
				s0.4,0.1,0.4,0.4c0,0.2,0,0.5,0,0.7s0.1,0.4,0.4,0.4s0.4,0.1,0.4,0.4c0,0.2,0.1,0.4,0.4,0.4s0.4,0.1,0.4,0.4
				c0,0.2,0.1,0.4,0.4,0.4c0.2,0,0.4,0.1,0.4,0.4s0.1,0.4,0.4,0.4s0.4,0.1,0.4,0.4c0,0.2,0.1,0.4,0.4,0.4c0.2,0,0.5,0,0.7,0
				s0.5,0,0.7,0s0.4,0.1,0.4,0.4c0,0.2,0,0.5,0,0.7s0.1,0.4,0.4,0.4s0.4,0.1,0.4,0.4s0.1,0.4,0.4,0.4s0.5,0,0.7,0s0.4,0.1,0.4,0.4
				s0.1,0.4,0.4,0.4s0.5,0,0.7,0s0.4,0.1,0.4,0.4c0,0.2,0.1,0.4,0.4,0.4s0.4,0.1,0.4,0.4c0,0.2,0.1,0.4,0.4,0.4c0.2,0,0.5,0,0.7,0
				s0.5,0.1,0.7,0.4s0.5,0.4,0.7,0.4s0.5,0,0.7,0s0.5,0,0.7,0s0.5,0,0.7,0s0.5,0,0.7,0s0.5,0,0.7,0s0.5,0,0.7,0s0.5,0,0.7,0
				s0.5,0,0.7,0c0.2,0,0.5,0,0.7,0c0.2,0,0.5,0,0.7,0s0.5,0,0.7,0s0.5,0,0.7,0s0.5,0,0.7,0s0.5,0,0.7,0s0.5,0,0.7,0s0.5,0,0.7,0
				s0.5,0,0.7,0s0.4-0.1,0.4-0.4s0.1-0.4,0.4-0.4s0.5,0,0.7,0c0.2,0,0.5,0,0.7,0s0.4-0.1,0.4-0.4c0-0.2,0.1-0.4,0.4-0.4s0.5,0,0.7,0
				s0.4-0.1,0.4-0.4c0-0.2,0.1-0.4,0.4-0.4s0.4-0.1,0.4-0.4c0-0.2,0.1-0.4,0.4-0.4s0.5,0,0.7,0s0.5-0.1,0.7-0.4s0.5-0.4,0.7-0.4
				s0.4-0.1,0.4-0.4s0.1-0.4,0.4-0.4c0.2,0,0.5,0,0.7,0c0.2,0,0.4-0.1,0.4-0.4c0-0.2,0.1-0.4,0.4-0.4s0.5,0,0.7,0s0.4-0.1,0.4-0.4
				c0-0.2,0.1-0.4,0.4-0.4s0.5,0,0.7,0s0.4-0.1,0.4-0.4s0.1-0.4,0.4-0.4c0.2,0,0.5,0,0.7,0c0.2,0,0.4-0.1,0.4-0.4
				c0-0.2,0.1-0.4,0.4-0.4s0.4-0.1,0.4-0.4c0-0.2,0.1-0.4,0.4-0.4s0.5,0,0.7,0s0.4-0.1,0.4-0.4s0.1-0.4,0.4-0.4
				c0.2,0,0.4-0.1,0.4-0.4c0-0.2,0.1-0.4,0.4-0.4c0.2,0,0.5,0,0.7,0s0.4,0.1,0.4,0.4c0,0.2,0,0.5,0,0.7s0.1,0.4,0.4,0.4s0.5,0,0.7,0
				s0.4,0.1,0.4,0.4c0,0.2,0.1,0.4,0.4,0.4s0.5,0,0.7,0s0.5,0,0.7,0s0.4,0.1,0.4,0.4c0,0.2,0.1,0.4,0.4,0.4c0.2,0,0.5,0,0.7,0
				c0.2,0,0.5,0,0.7,0c0.2,0,0.4,0.1,0.4,0.4s0.1,0.4,0.4,0.4c0.2,0,0.5,0,0.7,0s0.5,0,0.7,0s0.5,0,0.7,0s0.5,0,0.7,0s0.5,0,0.7,0
				s0.5,0,0.7,0s0.5,0.1,0.7,0.4c0.2,0.2,0.5,0.4,0.7,0.4s0.5,0,0.7,0c0.2,0,0.5,0,0.7,0s0.5,0,0.7,0c0.2,0,0.5,0,0.7,0s0.5,0,0.7,0
				s0.5,0,0.7,0s0.5,0,0.7,0s0.5,0,0.7,0s0.5-0.1,0.7-0.4c0.2-0.2,0.5-0.4,0.7-0.4s0.5,0,0.7,0s0.5-0.1,0.7-0.4
				c0.2-0.2,0.5-0.4,0.7-0.4c0.2,0,0.2,0,0,0c-0.2,0-0.4,0.1-0.4,0.4s-0.1,0.5-0.4,0.7c-0.2,0.2-0.5,0.4-0.7,0.4s-0.5,0-0.7,0
				s-0.4,0.1-0.4,0.4c0,0.2-0.1,0.4-0.4,0.4c-0.2,0-0.4,0.1-0.4,0.4s-0.1,0.5-0.4,0.7s-0.5,0.4-0.7,0.4s-0.4,0.1-0.4,0.4
				s-0.1,0.4-0.4,0.4s-0.4,0.1-0.4,0.4c0,0.2-0.1,0.5-0.4,0.7c-0.2,0.2-0.5,0.4-0.7,0.4s-0.4,0.1-0.4,0.4s-0.1,0.4-0.4,0.4
				s-0.5,0-0.7,0s-0.5,0-0.7,0c-0.2,0-0.5,0.1-0.7,0.4c-0.2,0.2-0.5,0.4-0.7,0.4s-0.4,0.1-0.4,0.4c0,0.2-0.1,0.4-0.4,0.4
				s-0.4,0.1-0.4,0.4s-0.1,0.4-0.4,0.4s-0.5,0-0.7,0s-0.4,0.1-0.4,0.4c0,0.2-0.1,0.4-0.4,0.4s-0.5,0-0.7,0s-0.4,0.1-0.4,0.4
				c0,0.2-0.1,0.4-0.4,0.4s-0.5,0-0.7,0c-0.2,0-0.5,0-0.7,0s-0.4,0.1-0.4,0.4s-0.1,0.4-0.4,0.4s-0.5,0-0.7,0s-0.5,0-0.7,0
				s-0.5,0-0.7,0s-0.5,0-0.7,0s-0.4-0.1-0.4-0.4c0-0.2,0-0.5,0-0.7c0-0.2-0.1-0.4-0.4-0.4s-0.4-0.1-0.4-0.4c0-0.2,0-0.2,0,0
				c0,0.2,0,0.5,0,0.7c0,0.2,0,0.5,0,0.7s0,0.5,0,0.7c0,0.2,0,0.5,0,0.7c0,0.2,0,0.5,0,0.7s-0.1,0.4-0.4,0.4s-0.4,0.1-0.4,0.4
				s-0.1,0.4-0.4,0.4s-0.4,0.1-0.4,0.4c0,0.2-0.1,0.4-0.4,0.4c-0.2,0-0.4,0.1-0.4,0.4s-0.1,0.4-0.4,0.4c-0.2,0-0.5,0-0.7,0
				s-0.5,0-0.7,0s-0.4-0.1-0.4-0.4s-0.1-0.4-0.4-0.4s-0.5,0-0.7,0s-0.5-0.1-0.7-0.4c-0.2-0.2-0.6-0.4-1.1-0.4s-0.7-0.1-0.7-0.4
				s-0.1-0.4-0.4-0.4s-0.7-0.2-1.5-0.7c-0.7-0.5-1.2-0.7-1.5-0.7s-0.5,0-0.7,0s-0.5,0-0.7,0s-0.5,0-0.7,0s-0.5,0-0.7,0s-0.5,0-0.7,0
				s-0.4-0.1-0.4-0.4c0-0.2-0.1-0.4-0.4-0.4s-0.5,0-0.7,0s-0.5,0-0.7,0c-0.2,0-0.5,0-0.7,0s-0.5,0-0.7,0s-0.5,0-0.7,0s-0.5,0-0.7,0
				s-0.5-0.1-0.7-0.4s-0.5-0.4-0.7-0.4s-0.5,0-0.7,0s-0.5,0-0.7,0s-0.5,0-0.7,0s-0.5,0-0.7,0c-0.2,0-0.5,0-0.7,0c-0.2,0-0.5,0-0.7,0
				s-0.5,0-0.7,0s-0.5,0-0.7,0s-0.5,0-0.7,0s-0.5,0-0.7,0s-0.5,0-0.7,0s-0.5,0-0.7,0s-0.5,0-0.7,0s-0.5,0-0.7,0s-0.5,0-0.7,0
				s-0.5,0-0.7,0c-0.2,0-0.5,0-0.7,0s-0.5,0-0.7,0s-0.5,0-0.7,0s-0.5,0-0.7,0s-0.5,0-0.7,0s-0.5,0-0.7,0s-0.4,0.1-0.4,0.4
				s-0.1,0.4-0.4,0.4s-0.5,0-0.7,0s-0.4,0.1-0.4,0.4c0,0.2-0.1,0.4-0.4,0.4c-0.2,0-0.5,0-0.7,0s-0.5,0-0.7,0c-0.2,0-0.5,0-0.7,0
				s-0.5,0-0.7,0s-0.4,0.1-0.4,0.4c0,0.2-0.1,0.4-0.4,0.4s-0.5,0-0.7,0s-0.4,0.1-0.4,0.4c0,0.2-0.1,0.4-0.4,0.4s-0.5,0-0.7,0
				s-0.5,0-0.7,0s-0.4,0.1-0.4,0.4s-0.1,0.4-0.4,0.4c-0.2,0-0.5,0-0.7,0c-0.2,0-0.4,0.1-0.4,0.4c0,0.2-0.1,0.4-0.4,0.4
				s-0.5,0.1-0.7,0.4s-0.5,0.4-0.7,0.4s-0.5,0-0.7,0s-0.4,0.1-0.4,0.4c0,0.2-0.1,0.4-0.4,0.4s-0.5,0-0.7,0s-0.5,0-0.7,0
				s-0.5,0-0.7,0s-0.4,0.1-0.4,0.4c0,0.2-0.1,0.4-0.4,0.4s-0.5,0.1-0.7,0.4c-0.2,0.2-0.5,0.4-0.7,0.4c-0.2,0-0.4-0.1-0.4-0.4
				c0-0.2,0-0.5,0-0.7c0-0.2,0-0.5,0-0.7s0-0.5,0-0.7s0-0.5,0-0.7c0-0.2-0.1-0.5-0.4-0.7s-0.4-0.5-0.4-0.7s0-0.5,0-0.7
				c0-0.2-0.1-0.4-0.4-0.4s-0.4-0.1-0.4-0.4c0-0.2,0-0.5,0-0.7s-0.1-0.5-0.4-0.7c-0.2-0.2-0.4-0.5-0.4-0.7c0-0.2-0.2-0.6-0.7-1.1
				l-0.7-0.7"/>
		</g>
		
			<g id="KVXqBJH5aXpToWGxujuIU" transform="matrix(1.6613532768 0.0289990293 -0.0279187004 1.5994612759 -33.5781942411 -136.235534223)">
			<path vector-effect="non-scaling-stroke" class="st15" d="M1147.9,189.9c6.2-2,13.2,19.8,13.2,19.8l40.3-1.5l10.2-19.8
				c0,0,21.2-4.4,27.8-24.9c3.1-9.8-16.1-11-16.1-11l-13.8,1.4c0,0-14.1,0.6-16.2-0.7c-8.1-5.1-14.8-9-26.4-7.3
				c-11.5,1.6-13.2,6.6-19.8,13.9c-6.6,7.3-8.2-5.3-13.9,5.1S1141.7,191.9,1147.9,189.9z"/>
		</g>
		<g id="pKEMgGBfLL7rjhHk5fhb8" transform="matrix(1 0 0 1 6.8345792798 64.8874549392)">
			<path vector-effect="non-scaling-stroke" class="st4" d="M1972.5,279.9c0,0,22.3,11.6,25.6,31.6s-35,45.6-52,45.6
				c-17,0-15.8-8.7-10.1-16.2s39.4-34.4,39.4-34.4l-6.9-26L1972.5,279.9z"/>
		</g>
		<g id="KMp3O2gy9sVSKXJr3bfL3" transform="matrix(-1 0 0 1 -84.7176252364 69.1764769511)">
			<path vector-effect="non-scaling-stroke" class="st4" d="M-1957.9,279.9c0,0,22.3,11.6,25.6,31.6s-35,45.6-52,45.6
				c-17,0-15.8-8.7-10.1-16.2c5.7-7.5,39.4-34.4,39.4-34.4l-6.9-26L-1957.9,279.9z"/>
		</g>
	</g>
</g>
<g id="UL73Qpy2Me3FkvNl0n1Z3" transform="matrix(1 0 0 1 1133.9990235941 236.6563912752)">
	<path vector-effect="non-scaling-stroke" class="st16" d="M1475.2,769.3"/>
</g>
<path class="st0" d="M1132.4,783.8c1.1-12.4,18.1-10.2,18.1-10.2l59.9,4.5c24.8-5.6,6.8-27.1,6.8-27.1s-70-6.8-80.2-9
	c-10.2-2.3-28.5,14.8-28.5,14.8l-35.9,85.7l-832.9-0.1c-32.2,8.4,0,30.4,0,30.4l827.3,0.2c32.8-1.1,36.1-12.4,42.9-32.8
	L1132.4,783.8z"/>
<polygon class="st0" points="506.6,383.7 499,503.8 967.7,498.1 960.6,377.8 "/>
<polygon class="st0" points="742.8,396.4 743.9,477.7 925.7,474.3 918.9,391.9 "/>
<polyline class="st0" points="499,503.8 504.5,518.4 960.7,511.1 967.7,498.1 "/>
<polyline class="st0" points="511.2,519.5 518,563.6 952.8,556.8 957.3,511.6 "/>
<ellipse class="st0" cx="268.4" cy="857.1" rx="13" ry="12.4"/>
<ellipse class="st0" cx="299.5" cy="857.1" rx="13" ry="12.4"/>
<ellipse class="st0" cx="329.4" cy="857.1" rx="13" ry="12.4"/>
<ellipse class="st0" cx="357.6" cy="857.1" rx="13" ry="12.4"/>
<ellipse class="st0" cx="385.9" cy="857.1" rx="13" ry="12.4"/>
<ellipse class="st0" cx="415.2" cy="857.1" rx="13" ry="12.4"/>
<ellipse class="st0" cx="445.7" cy="857.1" rx="13" ry="12.4"/>
<ellipse class="st0" cx="476.8" cy="858.1" rx="13" ry="12.4"/>
<ellipse class="st0" cx="506.7" cy="858.1" rx="13" ry="12.4"/>
<ellipse class="st0" cx="534.9" cy="858.1" rx="13" ry="12.4"/>
<ellipse class="st0" cx="563.2" cy="858.1" rx="13" ry="12.4"/>
<ellipse class="st0" cx="592.5" cy="858.1" rx="13" ry="12.4"/>
<ellipse class="st0" cx="621.9" cy="858" rx="13" ry="12.4"/>
<ellipse class="st0" cx="653" cy="858" rx="13" ry="12.4"/>
<ellipse class="st0" cx="682.9" cy="858" rx="13" ry="12.4"/>
<ellipse class="st0" cx="711.1" cy="858" rx="13" ry="12.4"/>
<ellipse class="st0" cx="739.4" cy="858" rx="13" ry="12.4"/>
<ellipse class="st0" cx="768.7" cy="858" rx="13" ry="12.4"/>
<ellipse class="st0" cx="798.1" cy="858.1" rx="13" ry="12.4"/>
<polygon class="st0" points="349.3,136.5 336.4,246.8 1132.4,241.5 1120.3,131 "/>
<ellipse class="st0" cx="829.2" cy="858.1" rx="13" ry="12.4"/>
<ellipse class="st0" cx="859.1" cy="858.1" rx="13" ry="12.4"/>
<ellipse class="st0" cx="887.3" cy="858.1" rx="13" ry="12.4"/>
<ellipse class="st0" cx="915.6" cy="858.1" rx="13" ry="12.4"/>
<ellipse class="st0" cx="944.9" cy="858.1" rx="13" ry="12.4"/>
<ellipse class="st0" cx="972.6" cy="857.9" rx="13" ry="12.4"/>
<ellipse class="st0" cx="1000.8" cy="857.9" rx="13" ry="12.4"/>
<ellipse class="st0" cx="1029.1" cy="857.9" rx="13" ry="12.4"/>
<ellipse class="st0" cx="1058.4" cy="857.9" rx="13" ry="12.4"/>
<ellipse class="st0" cx="1087.8" cy="849.3" rx="13" ry="12.4"/>
<ellipse class="st0" cx="1098" cy="823.3" rx="13" ry="12.4"/>
<ellipse class="st0" cx="1109.3" cy="796.2" rx="13" ry="12.4"/>
<ellipse class="st0" cx="1120.5" cy="768" rx="13" ry="12.4"/>
<ellipse class="st0" cx="1148.7" cy="758.3" rx="13" ry="12.4"/>
<ellipse class="st0" cx="1176.7" cy="760.8" rx="13" ry="12.4"/>
<ellipse class="st0" cx="1204.7" cy="763.3" rx="13" ry="12.4"/>
<path class="st0" d="M100.1,740.7l1.7,65.5c0,0,35.6,68.8,150.2,70.6l-1.1-35C250.9,841.8,114.8,841.2,100.1,740.7z"/>
<polygon class="st0" points="742.8,396.4 749.5,431 911,428.4 918.9,391.9 "/>
<polyline class="st0" points="749.8,430.6 750.5,477.5 743.9,477.7 742.8,396.4 "/>
<polygon class="st0" points="911,428.4 915.2,474.4 925.7,474.3 918.9,391.9 "/>
<ellipse class="st0" cx="833.4" cy="461.1" rx="13.6" ry="8"/>
<path class="st0" d="M881.3,486.9c1.9,2.6,5.5,3.8,8.1,3.8c2.4-0.1,5.3-0.6,7-4.1c-0.6-14.8-1.3-29.6-1.9-44.4c0,0-0.4-24.8-12-25.6
	s-12.6,9.4-12.6,9.4l-0.6,15.1c0.8,1.1,1.9,1.5,2.9,1.6c1,0.1,2.3-0.4,3.4-1.2c0.2-1.8,0.9-8.7,2-14.1c0.8-2.2,5.2-3.6,5.6,5.5
	S881.3,486.9,881.3,486.9z"/>
<polyline class="st0" points="357.1,267.1 368.8,288.2 1107.1,278.6 1114.6,256.8 "/>
<rect x="1256.1" y="832.9" class="st0" width="183.6" height="94"/>
<polygon class="st0" points="1262.2,832.9 1442.4,832.9 1395.1,643.2 1237.4,647.4 "/>
<polygon class="st0" points="1256.1,927.8 1235.7,760.1 1235.7,650 1264.5,831.2 "/>
<ellipse transform="matrix(0.9936 -0.1132 0.1132 0.9936 -75.4044 153.1484)" class="st0" cx="1311.1" cy="740.7" rx="55.7" ry="76.8"/>
<rect x="1383.3" y="674.5" class="st0" width="23.5" height="150.8"/>
<ellipse class="st0" cx="1395.7" cy="673.7" rx="12.5" ry="12.8"/>
<path class="st17" d="M1280.5,766.6c-2.9-7.3-1.3-15.7,2.3-22.7s9.2-12.6,14.7-18.2c-3.4,4.2-1.4,10.7,2.2,14.7
	c3.6,4,8.5,6.9,11.7,11.2c5.8,7.9,13.5,7.1,12.1,16.8c1.2,1.9,4.2,0.3,5.4-1.6c9.2-14.8-11.4-35.9-1.7-50.4
	c-9.6,6.4-17.9,14.8-24.2,24.5c7.5-1.7,9.9-11.6,8.1-19.1c-1.8-7.5-6.2-14.5-6.4-22.2c-0.1-7.3,3.6-14.1,7.3-20.5
	c-5.9,7.6-15.3,11.7-23.1,17.4c-7.8,5.7-14.7,15.1-12.1,24.4"/>
<path class="st17" d="M1290.8,796.2c-3.1-8.5-0.6-18.7,6-24.8c4-3.6,9.1-5.8,13.6-8.8s8.6-7.6,8.5-13c-3.1,8.8,3.1,17.9,8.3,25.7
	c5.1,7.8,9.3,18.9,3.1,25.9"/>
<path class="st17" d="M1318.3,717.7c-0.5-10,4.3-20.1,12.3-26.2c-4.6,14,15.8,27.3,11,41.2"/>
<polygon class="st0" points="1181.5,258.6 1222.2,482.2 1357.7,478.9 1284.9,255.2 "/>
<polygon class="st0" points="1132.4,238.9 1120.5,259.8 345.7,271.6 336.4,248.1 "/>
<polygon class="st0" points="1220.5,482.2 1201.9,585.6 1334,582.2 1356,478.9 "/>
<polygon class="st0" points="1200.2,585.6 1164.6,363.7 1181.5,260.3 1220.5,482.2 "/>
<ellipse class="st0" cx="1278.6" cy="562.6" rx="23.1" ry="20.7"/>
<polyline class="st0" points="1255.5,564.7 1278.1,646.6 1332.3,646.6 1296.7,548.3 "/>
<path class="st0" d="M185.4-0.6L293.8,0l-25.2,621.2c0,0-17.2,77.9,91.3,67.1l653.9-9.5l67.8-54.2c0,0,11.9-20.3,42.4-15.2
	l80.2,16.4l23.2,127.1l-90.4-10.7c0,0-16.6,3.5-28.5,14.8l-33.6,85.7l-789.5-0.8c0,0-218.5,20.1-181.3-145.9L185.4-0.6z"/>
<polygon class="st0" points="1181.5,304.4 1173.1,365.3 1201.9,541.5 1210.3,480.5 "/>
</svg>
